<svg id="outline" viewBox="0 0 512 512" fill="#bdbdbd" xmlns="http://www.w3.org/2000/svg"><path d="m488 16h-160a8.00008 8.00008 0 0 0 -8 8v232h-16v-72a8.00008 8.00008 0 0 0 -8-8h-60.686l10.34327-10.34326a8 8 0 0 0 0-11.31348l-56-56a8.00122 8.00122 0 0 0 -11.31446 0l-56 56a8 8 0 0 0 0 11.31348l56 56a8.00063 8.00063 0 0 0 11.31446 0l18.34273-18.34274v60.686a8.00008 8.00008 0 0 0 8 8h24v104h-8v-56a8.00008 8.00008 0 0 0 -8-8h-32a8.00008 8.00008 0 0 0 -8 8v96h-40v-80a8.00008 8.00008 0 0 0 -8-8h-48a7.99993 7.99993 0 0 0 -6.78418 3.75977l-37.65015 60.24023h-19.56567a8.00008 8.00008 0 0 0 -8 8v72a8.00008 8.00008 0 0 0 8 8h20.30518a31.96885 31.96885 0 0 0 55.38964 0h29.6814a23.99486 23.99486 0 0 0 45.24756 0h129.37622a8.00008 8.00008 0 0 0 8-8v-16h176a8.00008 8.00008 0 0 0 8-8v-424a8.00008 8.00008 0 0 0 -8-8zm-304 188.686-44.68652-44.686 16.68628-16.68622 14.343 14.343 11.31446-11.31348-14.34322-14.34336 16.686-16.68594 44.68652 44.686zm152 211.314v-64h24v24h16v-24h24v64zm-80 0v-64h24v24h16v-24h24v64zm120-280v-24h24v64h-64v-64h24v24zm80 0v-24h24v64h-64v-64h24v24zm24 120h-64v-64h24v24h16v-24h24zm0 80h-64v-64h24v24h16v-24h24zm-144-144h24v24h16v-24h24v64h-64zm24 80v24h16v-24h24v64h-64v-64zm56 80h24v24h16v-24h24v64h-64zm64-256h-64v-64h24v24h16v-24h24zm-144-64h24v24h16v-24h24v64h-64zm-112 160h24v24h16v-24h24v64h-64zm56 80v24h16v-24h24v64h-64v-64zm-155.71875 144-13.625-20.4375a7.99943 7.99943 0 0 0 -6.65625-3.5625h-1.052l5.33325-8h19.71875v32zm-31.84766-72h35.56641v24h-24a7.99943 7.99943 0 0 0 -6.65625 3.5625l-13.625 20.4375h-21.28467zm-20.43359 136a16 16 0 1 1 16-16 16.01833 16.01833 0 0 1 -16 16zm0-48a32.03635 32.03635 0 0 0 -32 32h-8v-56h67.71875l13.625 20.4375a7.99943 7.99943 0 0 0 6.65625 3.5625h64v32h-9.37622a23.99486 23.99486 0 0 0 -45.24756 0h-25.37622a32.03635 32.03635 0 0 0 -32-32zm80 48a8 8 0 1 1 8-8 8.00917 8.00917 0 0 1 -8 8zm48-152h16v136h-16zm96 136h-64v-72h8v56a8.00008 8.00008 0 0 0 8 8h48zm184-24h-224v-8h224z"/><path d="m200 40h16v32h-16z"/><path d="m227.029 68h33.941v16h-33.941z" transform="matrix(.707 -.707 .707 .707 17.731 194.804)"/><path d="m56 168h32v16h-32z"/><path d="m75.029 204h33.941v16h-33.941z" transform="matrix(.707 -.707 .707 .707 -122.96 127.147)"/></svg>